<svg width="2772" height="675" viewBox="0 0 2772 675" fill="none" xmlns="http://www.w3.org/2000/svg">
<ellipse cx="486" cy="337.5" rx="486" ry="324" fill="#03264C"/>
<ellipse cx="486" cy="317" rx="445" ry="296.5" fill="#EAC926"/>
<mask id="mask0_1_66" style="mask-type:alpha" maskUnits="userSpaceOnUse" x="41" y="20" width="890" height="594">
<ellipse cx="486" cy="317" rx="445" ry="296.5" fill="#EAC926"/>
</mask>
<g mask="url(#mask0_1_66)">
<path fill-rule="evenodd" clip-rule="evenodd" d="M484.268 72.2196C471.329 73.5369 462.137 75.885 459.795 78.4715C457.452 81.0612 458.799 83.5853 463.844 86.0526C466.767 87.4827 469.976 88.234 473.23 88.2504L495.618 88.3629C523.892 88.5057 539.776 89.5444 562.816 92.7592C613.904 99.8865 661.651 118.014 691.098 141.463C703.622 151.435 707.538 155.322 720.676 170.817C722.11 172.509 722.048 172.17 720.239 168.449C707.539 142.319 678.68 115.212 645.864 98.5889C616.785 83.8592 584.987 75.4628 545.844 72.1785C534.82 71.2535 493.492 71.2811 484.268 72.2196ZM481.111 101.053C448.226 102.714 428.781 106.115 415.254 112.57C408.212 115.93 401.674 122.511 399.503 128.423C397.264 134.521 397.234 143.13 399.431 149.001C405.773 165.947 431.25 173.612 468.085 169.656C473.947 169.026 481.762 167.959 485.453 167.284C548.731 155.708 591.247 154.518 625.97 163.348C644.514 168.064 663.12 177.968 676.099 190.032L678.653 192.405C680.221 193.863 680.133 196.373 678.467 197.718C671.823 203.081 663.117 212.711 659.288 218.931C655.401 225.246 653.888 228.51 648.859 241.422C645.257 250.672 641.671 256.03 634.747 262.507C624.936 271.683 615.428 276.623 604.568 278.185C592.762 279.883 580.895 277.469 552.159 267.522C510.236 253.011 489.325 248.89 457.428 248.853C431.376 248.822 412.829 252.119 392.3 260.429C364.999 271.481 342.093 290.667 324.179 317.488C312.387 335.145 300.079 365.051 295.767 386.527L295.359 388.556C294.79 391.395 291.141 392.24 289.38 389.942C281.258 379.338 269.132 371.325 256.914 368.483C248.854 366.61 228.444 367.273 220.218 369.678C203.85 374.461 193.932 383.829 191.095 397.184C186.28 419.856 202.541 445.009 226.915 452.595C233.831 454.746 246.78 455.504 254.94 454.233C262.642 453.033 275.688 448.65 284.197 444.404L285.001 444.003C288.312 442.35 292.336 443.643 294.065 446.914C300.519 459.126 313.624 472.461 330.809 484.304C340.901 491.259 348.694 495.676 363.113 502.614C374.033 507.868 376.332 508.671 384.801 510.182C395.935 512.168 413.812 516.535 422.57 519.409C439.517 524.969 451.778 532.28 455.177 538.853C457.093 542.557 456.761 548.208 454.336 553.163C450.562 560.875 444.853 565.358 416.517 582.863C408.145 588.035 400.871 594.408 399.113 598.112C396.226 604.194 398.659 613.989 404.226 618.702C410.396 623.925 422.007 627.61 446.544 632.132C486.124 639.427 506.154 645.372 525.701 655.623C541.938 664.138 552.696 672.176 565.206 685.138C574.029 694.281 577.883 699.19 585.958 711.572C589.229 716.588 593.745 722.705 595.994 725.165C605.007 735.025 619.844 743.999 634.259 748.31C640.492 750.175 642.77 750.442 652.811 750.492C663.24 750.544 664.626 750.382 668.408 748.674C676.836 744.865 679.364 739.493 678.477 727.278C676.927 705.935 671.143 688.785 659.666 671.497C637.912 638.732 597.213 611.769 543.384 594.462C536.053 592.105 528.852 589.852 527.382 589.457C526.357 589.181 526.146 587.819 527.041 587.247L537.25 580.718C553.833 570.113 561.679 564.207 570.603 555.612C584.136 542.577 592.887 529.899 598.945 514.552C605.203 498.698 607.392 486.436 607.328 467.589C607.264 448.794 604.338 435.301 596.809 419.085C587.786 399.651 569.966 378.469 553.035 367.052C549.031 364.351 550.315 364.432 557.01 367.3C586.804 380.066 614.134 402.701 628.566 426.565C641.927 448.656 645.977 473.334 641.336 504.385C638.369 524.236 628.605 551.847 619.196 566.991L618.521 568.078C618.197 568.599 618.827 569.186 619.324 568.827C622.346 566.639 630.198 558.481 635.474 552.043C647.22 537.715 662.156 510.394 670.193 488.536C683.798 451.529 690.902 412.372 693.18 361.819L693.683 350.661C693.89 346.066 698.754 343.202 702.872 345.251C718.313 352.93 735.078 357.493 765.304 362.243C776.494 364.002 780.364 364.284 788.592 363.941C809.38 363.075 831.164 354.419 835.726 345.213C839.306 337.985 840.956 326.639 840.999 308.943C841.05 288.033 838.688 269.74 833.864 253.712C830.022 240.943 822.613 229.113 811.22 217.557C791.362 197.413 763.771 186.069 728.201 183.422C721.688 182.938 713.321 182.777 709.607 183.065C705.379 183.393 701.259 181.625 698.584 178.334L696.767 176.098C684.008 160.4 665.782 145.959 643.948 134.25C615.713 119.106 575.287 106.869 539.134 102.52C528.923 101.291 493.91 100.407 481.111 101.053ZM131 204.362C131 207.844 133.715 210.949 136.892 213.391C142.859 217.976 150.652 218.961 158.177 218.956L264.61 218.879C379.746 218.805 397.402 218.645 392.3 217.721C375.698 214.714 363.465 206.344 357.895 194.18C356.661 191.487 353.971 189.76 351.009 189.76H243.436H158.154C150.644 189.76 142.869 190.748 136.91 195.32C133.725 197.763 131 200.874 131 204.362ZM234.218 248.763L158.047 248.943C152.671 248.956 147.25 249.551 142.376 251.82C137.098 254.277 131 258.263 131 263.562C131 268.839 137.048 272.813 142.31 275.272C147.223 277.568 152.696 278.16 158.119 278.16H218.144H298.601C302.685 278.16 306.405 275.809 308.158 272.12C313.284 261.327 323.748 252.872 335.2 250.272C337.686 249.707 339.207 249.092 338.578 248.904C337.949 248.716 290.987 248.652 234.218 248.763ZM810.959 260.282C825.691 268.915 823.565 292.176 807.557 297.492C799.764 300.08 790.408 298.04 785.28 292.638C780.142 287.224 778.164 276.763 781.019 270.099C782.899 265.71 786.919 261.563 791.35 259.446C796.89 256.797 805.649 257.171 810.959 260.282Z" fill="white" stroke="#03264C" stroke-width="12" stroke-linejoin="round"/>
</g>
<g clip-path="url(#clip0_1_66)">
<path d="M1219.28 144.99V288.303H1162V156.439C1162 92.4144 1194.25 60.6211 1258.29 60.6211C1287.14 60.6211 1309.2 66.9895 1325.33 79.7019C1341.45 67.4027 1363.51 61.4718 1392.36 61.4718C1456.42 61.4718 1488.24 93.2651 1487.82 157.289V289.154H1458.54C1439.88 287.89 1430.54 278.969 1430.54 261.177V145.865C1429.28 122.555 1416.53 111.106 1391.51 111.106C1366.48 111.106 1353.76 122.555 1353.32 145.865V288.327H1296.48V145.014C1295.21 121.704 1282.47 110.256 1257.44 110.256C1232.41 110.256 1219.69 121.704 1219.26 145.014L1219.28 144.99Z" fill="#03264C"/>
<path d="M1620.6 293.383C1552.72 291.268 1518.79 251.843 1518.79 175.519C1518.79 99.196 1553.15 61.0586 1621.45 60.6211C1692.72 60.6211 1726.23 104.3 1722 192.048H1576.92C1579.03 226.394 1593.89 243.773 1621.45 243.773C1634.61 243.773 1646.89 238.255 1657.93 227.657C1663.02 222.14 1669.39 219.612 1677.03 219.612H1718.59C1706.29 267.107 1675.74 293.383 1620.6 293.383ZM1577.74 151.772H1662.17C1658.79 122.093 1644.78 106.828 1620.6 106.828C1596.42 106.828 1582 122.093 1577.74 151.772Z" fill="#03264C"/>
<path d="M1748.29 172.554C1750 100.047 1788.59 64.0239 1863.68 64.0239H1871.73V122.53H1852.64C1821.24 122.53 1805.55 139.059 1805.55 171.703V288.303H1748.27V172.554H1748.29Z" fill="#03264C"/>
<path d="M2000.74 293.383C1932.85 293.383 1898.07 254.371 1896.37 177.221C1896.37 100.484 1930.74 61.9094 1999.88 60.6211C2054.2 60.6211 2086.42 84.7821 2096.18 133.542H2034.67C2027.88 118.277 2016.01 110.231 1998.18 110.231C1968.48 110.231 1953.65 132.691 1953.65 177.221C1953.65 221.751 1969.34 244.21 2000.74 243.773C2013.89 243.773 2025.35 238.255 2034.67 227.657C2040.19 222.14 2046.53 219.612 2053.76 219.612H2096.18C2085.99 265.406 2052.91 294.647 2000.71 293.383H2000.74Z" fill="#03264C"/>
<path d="M2184 122.531H2127.58C2134.36 80.9902 2163.65 60.6211 2215.41 60.6211C2277.35 60.6211 2308.73 80.9659 2310.02 122.531V198.854C2310.02 260.763 2272.68 288.303 2212.02 292.557C2158.15 296.786 2120.82 271.774 2120.82 222.188C2122.08 168.349 2161.12 153.935 2217.96 148.417C2242.14 145.452 2254.44 138.233 2254.44 125.958C2253.18 113.245 2241.28 106.877 2217.96 106.877C2198.01 106.877 2187 111.957 2184.03 122.555L2184 122.531ZM2255.27 196.302V175.519C2242.11 181.037 2226.84 185.704 2210.3 189.083C2187.82 193.312 2176.37 203.91 2176.37 220.463C2177.63 238.28 2186.97 246.738 2204.8 246.738C2236.2 246.738 2255.29 228.095 2255.29 196.277L2255.27 196.302Z" fill="#03264C"/>
<path d="M2544.17 28.4147V191.222C2544.17 258.624 2508.95 292.119 2438.95 291.706C2369.37 290.442 2334.58 252.694 2334.58 178.072C2334.58 103.45 2364.28 62.7602 2424.09 60.6455C2452.09 60.6455 2473.73 72.094 2488.16 95.4042V0H2516.15C2531.43 0 2544.15 13.15 2544.15 28.4147H2544.17ZM2392.72 175.519C2392.3 220.876 2407.55 243.773 2439.8 243.773C2472.06 243.773 2488.16 220.876 2488.16 175.519C2486.89 132.278 2471.18 111.082 2440.63 111.082C2410.08 111.082 2394.39 132.278 2392.69 175.519H2392.72Z" fill="#03264C"/>
<path d="M2772 177.221C2772 254.371 2737.63 293.383 2669.75 293.383C2601.86 293.383 2567.93 254.371 2567.93 177.221C2567.93 100.071 2601.86 60.6211 2669.75 60.6211C2737.63 60.6211 2772 99.196 2772 177.221ZM2625.21 177.221C2625.63 220.9 2640.49 242.946 2669.33 242.946C2698.18 242.946 2712.6 220.049 2713.02 175.544C2713.02 131.864 2698.59 110.256 2669.75 110.256C2640.9 110.256 2625.21 132.715 2625.21 177.245V177.221Z" fill="#03264C"/>
<path d="M1524.31 409.181V669.92H1467.88V381.617H1497.16C1512.02 381.617 1524.31 394.329 1524.31 409.181Z" fill="#03264C"/>
<path d="M1593.87 381.617C1612.52 381.617 1621.45 390.951 1621.01 409.181V425.709H1564.59V381.617H1593.87ZM1593.87 445.641C1612.11 445.641 1621.01 454.537 1621.01 472.767V669.92H1564.59V445.641H1593.87Z" fill="#03264C"/>
<path d="M1752.96 675C1685.08 672.885 1651.15 633.46 1651.15 557.136C1651.15 480.813 1685.52 442.676 1753.81 442.238C1825.08 442.238 1858.59 485.917 1854.36 573.665H1709.28C1711.4 608.01 1726.26 625.39 1753.81 625.39C1766.97 625.39 1779.28 619.872 1790.3 609.274C1795.38 603.757 1801.75 601.229 1809.39 601.229H1850.96C1838.65 648.724 1808.1 675 1752.96 675ZM1710.11 533.389H1794.53C1791.12 503.71 1777.14 488.445 1752.96 488.445C1728.79 488.445 1714.36 503.71 1710.11 533.389Z" fill="#03264C"/>
<path d="M1937.08 477.021C1951.51 453.711 1972.72 442.262 2000.71 442.262C2060.52 444.377 2090.22 483.39 2090.22 559.689C2090.22 635.988 2055.44 672.035 1985.85 673.323C1915.85 673.736 1880.63 640.266 1880.63 572.839V381.617H1909.06C1927.72 381.617 1937.06 391.364 1937.06 410.032V477.021H1937.08ZM1937.08 557.161C1936.67 602.517 1951.92 625.414 1984.17 625.414C2016.42 625.414 2032.52 602.517 2032.52 557.161C2031.26 513.919 2015.55 492.723 1985 492.723C1954.45 492.723 1938.76 513.919 1937.06 557.161H1937.08Z" fill="#03264C"/>
<path d="M2115.68 554.171C2117.39 481.664 2155.99 445.641 2231.07 445.641H2239.12V504.147H2220.03C2188.63 504.147 2172.94 520.676 2172.94 553.32V669.92H2115.66V554.171H2115.68Z" fill="#03264C"/>
<path d="M2365.57 675C2297.69 672.885 2263.76 633.46 2263.76 557.136C2263.76 480.813 2298.13 442.676 2366.42 442.238C2437.69 442.238 2471.2 485.917 2466.97 573.665H2321.89C2324 608.01 2338.87 625.39 2366.42 625.39C2379.58 625.39 2391.86 619.872 2402.91 609.274C2407.99 603.757 2414.36 601.229 2422 601.229H2463.57C2451.26 648.724 2420.71 675 2365.57 675ZM2322.72 533.389H2407.14C2403.76 503.71 2389.75 488.445 2365.57 488.445C2341.4 488.445 2326.97 503.71 2322.72 533.389Z" fill="#03264C"/>
</g>
<defs>
<clipPath id="clip0_1_66">
<rect width="1610" height="675" fill="white" transform="translate(1162)"/>
</clipPath>
</defs>
</svg>
